<mxfile host="Electron" modified="2022-08-18T07:38:35.693Z" agent="5.0 (X11; Linux x86_64) AppleWebKit/537.36 (KHTML, like Gecko) draw.io/19.0.2 Chrome/102.0.5005.63 Electron/19.0.3 Safari/537.36" etag="zfw1ReRsSP7RNuEnrKAJ" compressed="false" version="19.0.2" type="device">
  <diagram id="kntlUtY1XAIY34VaBQxC" name="Page-1">
    <mxGraphModel dx="2370" dy="1435" grid="1" gridSize="10" guides="1" tooltips="1" connect="1" arrows="1" fold="1" page="1" pageScale="1" pageWidth="1920" pageHeight="1200" math="0" shadow="0">
      <root>
        <mxCell id="0" />
        <mxCell id="1" parent="0" />
        <mxCell id="_zHTZQcXr0JsxiBvRCt7-15" value="" style="rounded=0;whiteSpace=wrap;html=1;fontSize=25;align=right;" parent="1" vertex="1">
          <mxGeometry x="480" y="201" width="320" height="40" as="geometry" />
        </mxCell>
        <mxCell id="_zHTZQcXr0JsxiBvRCt7-18" value="" style="rounded=0;whiteSpace=wrap;html=1;fontSize=25;align=right;" parent="1" vertex="1">
          <mxGeometry x="880" y="202" width="320" height="40" as="geometry" />
        </mxCell>
        <mxCell id="T0n8CZZ1Pmrx4sEwIJ8b-2" value="&lt;span style=&quot;font-size: 40px;&quot;&gt;Partition 1&lt;br&gt;&lt;/span&gt;" style="rounded=0;whiteSpace=wrap;html=1;fillColor=#ffcd28;gradientColor=#ffa500;strokeColor=#d79b00;" parent="1" vertex="1">
          <mxGeometry x="480" y="82" width="320" height="120" as="geometry" />
        </mxCell>
        <mxCell id="_zHTZQcXr0JsxiBvRCt7-3" value="&lt;span style=&quot;font-size: 40px;&quot;&gt;Partition 0&lt;br&gt;&lt;/span&gt;" style="rounded=0;whiteSpace=wrap;html=1;fillColor=#ffcd28;gradientColor=#ffa500;strokeColor=#d79b00;" parent="1" vertex="1">
          <mxGeometry x="80" y="80" width="320" height="120" as="geometry" />
        </mxCell>
        <mxCell id="_zHTZQcXr0JsxiBvRCt7-4" value="" style="rounded=0;whiteSpace=wrap;html=1;fontSize=25;align=right;" parent="1" vertex="1">
          <mxGeometry x="80" y="200" width="320" height="40" as="geometry" />
        </mxCell>
        <mxCell id="_zHTZQcXr0JsxiBvRCt7-5" value="17/272" style="rounded=0;whiteSpace=wrap;html=1;fontSize=25;fillColor=#d5e8d4;gradientColor=#97d077;strokeColor=#82b366;align=left;spacingLeft=10;" parent="1" vertex="1">
          <mxGeometry x="80" y="200" width="320" height="40" as="geometry" />
        </mxCell>
        <mxCell id="_zHTZQcXr0JsxiBvRCt7-6" value="&lt;span style=&quot;font-size: 40px;&quot;&gt;Partition 2&lt;br&gt;&lt;/span&gt;" style="rounded=0;whiteSpace=wrap;html=1;fillColor=#ffcd28;gradientColor=#ffa500;strokeColor=#d79b00;" parent="1" vertex="1">
          <mxGeometry x="880" y="82" width="320" height="120" as="geometry" />
        </mxCell>
        <mxCell id="eDnsMtsgoqtX_uenyCYl-4" value="17/272" style="rounded=0;whiteSpace=wrap;html=1;fontSize=25;fillColor=#d5e8d4;gradientColor=#97d077;strokeColor=#82b366;align=left;spacingLeft=10;" vertex="1" parent="1">
          <mxGeometry x="480" y="202" width="320" height="40" as="geometry" />
        </mxCell>
        <mxCell id="eDnsMtsgoqtX_uenyCYl-5" value="17/272" style="rounded=0;whiteSpace=wrap;html=1;fontSize=25;fillColor=#d5e8d4;gradientColor=#97d077;strokeColor=#82b366;align=left;spacingLeft=10;" vertex="1" parent="1">
          <mxGeometry x="880" y="202" width="320" height="40" as="geometry" />
        </mxCell>
        <mxCell id="eDnsMtsgoqtX_uenyCYl-6" value="" style="rounded=0;whiteSpace=wrap;html=1;fontSize=25;align=right;" vertex="1" parent="1">
          <mxGeometry x="480" y="1041" width="320" height="40" as="geometry" />
        </mxCell>
        <mxCell id="eDnsMtsgoqtX_uenyCYl-7" value="" style="rounded=0;whiteSpace=wrap;html=1;fontSize=25;align=right;" vertex="1" parent="1">
          <mxGeometry x="880" y="1042" width="320" height="40" as="geometry" />
        </mxCell>
        <mxCell id="eDnsMtsgoqtX_uenyCYl-8" value="&lt;span style=&quot;font-size: 40px;&quot;&gt;Partition 1&lt;br&gt;&lt;/span&gt;" style="rounded=0;whiteSpace=wrap;html=1;fillColor=#ffcd28;gradientColor=#ffa500;strokeColor=#d79b00;" vertex="1" parent="1">
          <mxGeometry x="480" y="922" width="320" height="120" as="geometry" />
        </mxCell>
        <mxCell id="eDnsMtsgoqtX_uenyCYl-9" value="&lt;span style=&quot;font-size: 40px;&quot;&gt;Partition 0&lt;br&gt;&lt;/span&gt;" style="rounded=0;whiteSpace=wrap;html=1;fillColor=#ffcd28;gradientColor=#ffa500;strokeColor=#d79b00;" vertex="1" parent="1">
          <mxGeometry x="80" y="920" width="320" height="120" as="geometry" />
        </mxCell>
        <mxCell id="eDnsMtsgoqtX_uenyCYl-10" value="" style="rounded=0;whiteSpace=wrap;html=1;fontSize=25;align=right;" vertex="1" parent="1">
          <mxGeometry x="80" y="1040" width="320" height="40" as="geometry" />
        </mxCell>
        <mxCell id="eDnsMtsgoqtX_uenyCYl-11" value="16/272" style="rounded=0;whiteSpace=wrap;html=1;fontSize=25;fillColor=#d5e8d4;gradientColor=#97d077;strokeColor=#82b366;align=left;spacingLeft=10;" vertex="1" parent="1">
          <mxGeometry x="80" y="1040" width="280" height="40" as="geometry" />
        </mxCell>
        <mxCell id="eDnsMtsgoqtX_uenyCYl-12" value="&lt;span style=&quot;font-size: 40px;&quot;&gt;Partition 2&lt;br&gt;&lt;/span&gt;" style="rounded=0;whiteSpace=wrap;html=1;fillColor=#ffcd28;gradientColor=#ffa500;strokeColor=#d79b00;" vertex="1" parent="1">
          <mxGeometry x="880" y="922" width="320" height="120" as="geometry" />
        </mxCell>
        <mxCell id="eDnsMtsgoqtX_uenyCYl-13" value="16/272" style="rounded=0;whiteSpace=wrap;html=1;fontSize=25;fillColor=#d5e8d4;gradientColor=#97d077;strokeColor=#82b366;align=left;spacingLeft=10;" vertex="1" parent="1">
          <mxGeometry x="480" y="1042" width="280" height="40" as="geometry" />
        </mxCell>
        <mxCell id="eDnsMtsgoqtX_uenyCYl-14" value="16/272" style="rounded=0;whiteSpace=wrap;html=1;fontSize=25;fillColor=#d5e8d4;gradientColor=#97d077;strokeColor=#82b366;align=left;spacingLeft=10;" vertex="1" parent="1">
          <mxGeometry x="880" y="1042" width="280" height="40" as="geometry" />
        </mxCell>
        <mxCell id="eDnsMtsgoqtX_uenyCYl-15" value="&lt;span style=&quot;font-size: 40px;&quot;&gt;Partition 0&lt;br&gt;&lt;/span&gt;" style="rounded=0;whiteSpace=wrap;html=1;fillColor=#ffcd28;gradientColor=#ffa500;strokeColor=#d79b00;" vertex="1" parent="1">
          <mxGeometry x="80" y="360" width="320" height="120" as="geometry" />
        </mxCell>
        <mxCell id="eDnsMtsgoqtX_uenyCYl-16" value="" style="rounded=0;whiteSpace=wrap;html=1;fontSize=25;align=right;" vertex="1" parent="1">
          <mxGeometry x="80" y="480" width="320" height="40" as="geometry" />
        </mxCell>
        <mxCell id="eDnsMtsgoqtX_uenyCYl-22" style="edgeStyle=orthogonalEdgeStyle;rounded=0;orthogonalLoop=1;jettySize=auto;html=1;exitX=0.5;exitY=1;exitDx=0;exitDy=0;entryX=0.5;entryY=1;entryDx=0;entryDy=0;strokeWidth=3;endSize=10;dashed=1;" edge="1" parent="1" source="eDnsMtsgoqtX_uenyCYl-17" target="eDnsMtsgoqtX_uenyCYl-20">
          <mxGeometry relative="1" as="geometry">
            <Array as="points">
              <mxPoint x="220" y="560" />
              <mxPoint x="660" y="560" />
            </Array>
          </mxGeometry>
        </mxCell>
        <mxCell id="eDnsMtsgoqtX_uenyCYl-23" value="&lt;font style=&quot;font-size: 25px;&quot;&gt;1/272&lt;/font&gt;" style="edgeLabel;html=1;align=center;verticalAlign=middle;resizable=0;points=[];" vertex="1" connectable="0" parent="eDnsMtsgoqtX_uenyCYl-22">
          <mxGeometry x="-0.3444" y="3" relative="1" as="geometry">
            <mxPoint x="90" y="3" as="offset" />
          </mxGeometry>
        </mxCell>
        <mxCell id="eDnsMtsgoqtX_uenyCYl-17" value="16/272" style="rounded=0;whiteSpace=wrap;html=1;fontSize=25;fillColor=#d5e8d4;gradientColor=#97d077;strokeColor=#82b366;align=left;spacingLeft=10;" vertex="1" parent="1">
          <mxGeometry x="80" y="480" width="280" height="40" as="geometry" />
        </mxCell>
        <mxCell id="eDnsMtsgoqtX_uenyCYl-18" value="" style="rounded=0;whiteSpace=wrap;html=1;fontSize=25;align=right;" vertex="1" parent="1">
          <mxGeometry x="480" y="479" width="320" height="40" as="geometry" />
        </mxCell>
        <mxCell id="eDnsMtsgoqtX_uenyCYl-19" value="&lt;span style=&quot;font-size: 40px;&quot;&gt;Partition 1&lt;br&gt;&lt;/span&gt;" style="rounded=0;whiteSpace=wrap;html=1;fillColor=#ffcd28;gradientColor=#ffa500;strokeColor=#d79b00;" vertex="1" parent="1">
          <mxGeometry x="480" y="360" width="320" height="120" as="geometry" />
        </mxCell>
        <mxCell id="eDnsMtsgoqtX_uenyCYl-20" value="18/272" style="rounded=0;whiteSpace=wrap;html=1;fontSize=25;fillColor=#d5e8d4;gradientColor=#97d077;strokeColor=#82b366;align=left;spacingLeft=10;" vertex="1" parent="1">
          <mxGeometry x="480" y="480" width="360" height="40" as="geometry" />
        </mxCell>
        <mxCell id="eDnsMtsgoqtX_uenyCYl-24" value="&lt;span style=&quot;font-size: 40px;&quot;&gt;Partition 1&lt;br&gt;&lt;/span&gt;" style="rounded=0;whiteSpace=wrap;html=1;fillColor=#ffcd28;gradientColor=#ffa500;strokeColor=#d79b00;" vertex="1" parent="1">
          <mxGeometry x="480" y="641" width="320" height="120" as="geometry" />
        </mxCell>
        <mxCell id="eDnsMtsgoqtX_uenyCYl-25" value="" style="rounded=0;whiteSpace=wrap;html=1;fontSize=25;align=right;" vertex="1" parent="1">
          <mxGeometry x="480" y="761" width="320" height="40" as="geometry" />
        </mxCell>
        <mxCell id="eDnsMtsgoqtX_uenyCYl-35" style="edgeStyle=orthogonalEdgeStyle;rounded=0;orthogonalLoop=1;jettySize=auto;html=1;exitX=0.5;exitY=1;exitDx=0;exitDy=0;entryX=0.5;entryY=1;entryDx=0;entryDy=0;fontSize=25;endSize=10;strokeWidth=3;dashed=1;" edge="1" parent="1" source="eDnsMtsgoqtX_uenyCYl-28" target="eDnsMtsgoqtX_uenyCYl-31">
          <mxGeometry relative="1" as="geometry">
            <Array as="points">
              <mxPoint x="620" y="840" />
              <mxPoint x="1080" y="840" />
            </Array>
          </mxGeometry>
        </mxCell>
        <mxCell id="eDnsMtsgoqtX_uenyCYl-36" value="2/272" style="edgeLabel;html=1;align=center;verticalAlign=middle;resizable=0;points=[];fontSize=25;" vertex="1" connectable="0" parent="eDnsMtsgoqtX_uenyCYl-35">
          <mxGeometry x="0.1022" relative="1" as="geometry">
            <mxPoint x="-42" as="offset" />
          </mxGeometry>
        </mxCell>
        <mxCell id="eDnsMtsgoqtX_uenyCYl-28" value="16/272" style="rounded=0;whiteSpace=wrap;html=1;fontSize=25;fillColor=#d5e8d4;gradientColor=#97d077;strokeColor=#82b366;align=left;spacingLeft=10;" vertex="1" parent="1">
          <mxGeometry x="480" y="761" width="280" height="40" as="geometry" />
        </mxCell>
        <mxCell id="eDnsMtsgoqtX_uenyCYl-29" value="" style="rounded=0;whiteSpace=wrap;html=1;fontSize=25;align=right;" vertex="1" parent="1">
          <mxGeometry x="880" y="760" width="320" height="40" as="geometry" />
        </mxCell>
        <mxCell id="eDnsMtsgoqtX_uenyCYl-30" value="&lt;span style=&quot;font-size: 40px;&quot;&gt;Partition 2&lt;br&gt;&lt;/span&gt;" style="rounded=0;whiteSpace=wrap;html=1;fillColor=#ffcd28;gradientColor=#ffa500;strokeColor=#d79b00;" vertex="1" parent="1">
          <mxGeometry x="880" y="641" width="320" height="120" as="geometry" />
        </mxCell>
        <mxCell id="eDnsMtsgoqtX_uenyCYl-31" value="19/272" style="rounded=0;whiteSpace=wrap;html=1;fontSize=25;fillColor=#d5e8d4;gradientColor=#97d077;strokeColor=#82b366;align=left;spacingLeft=10;" vertex="1" parent="1">
          <mxGeometry x="880" y="761" width="400" height="40" as="geometry" />
        </mxCell>
        <mxCell id="eDnsMtsgoqtX_uenyCYl-32" value="&lt;span style=&quot;font-size: 40px;&quot;&gt;Partition 0&lt;br&gt;&lt;/span&gt;" style="rounded=0;whiteSpace=wrap;html=1;fillColor=#ffcd28;gradientColor=#ffa500;strokeColor=#d79b00;" vertex="1" parent="1">
          <mxGeometry x="80" y="640" width="320" height="120" as="geometry" />
        </mxCell>
        <mxCell id="eDnsMtsgoqtX_uenyCYl-33" value="" style="rounded=0;whiteSpace=wrap;html=1;fontSize=25;align=right;" vertex="1" parent="1">
          <mxGeometry x="80" y="760" width="320" height="40" as="geometry" />
        </mxCell>
        <mxCell id="eDnsMtsgoqtX_uenyCYl-34" value="16/272" style="rounded=0;whiteSpace=wrap;html=1;fontSize=25;fillColor=#d5e8d4;gradientColor=#97d077;strokeColor=#82b366;align=left;spacingLeft=10;" vertex="1" parent="1">
          <mxGeometry x="80" y="760" width="280" height="40" as="geometry" />
        </mxCell>
        <mxCell id="eDnsMtsgoqtX_uenyCYl-37" value="" style="rounded=0;whiteSpace=wrap;html=1;fontSize=25;align=right;" vertex="1" parent="1">
          <mxGeometry x="1520" y="1040" width="320" height="40" as="geometry" />
        </mxCell>
        <mxCell id="eDnsMtsgoqtX_uenyCYl-38" value="&lt;span style=&quot;font-size: 40px;&quot;&gt;Partition 16&lt;br&gt;&lt;/span&gt;" style="rounded=0;whiteSpace=wrap;html=1;fillColor=#ffcd28;gradientColor=#ffa500;strokeColor=#d79b00;" vertex="1" parent="1">
          <mxGeometry x="1520" y="920" width="320" height="120" as="geometry" />
        </mxCell>
        <mxCell id="eDnsMtsgoqtX_uenyCYl-39" value="16/272" style="rounded=0;whiteSpace=wrap;html=1;fontSize=25;fillColor=#d5e8d4;gradientColor=#97d077;strokeColor=#82b366;align=left;spacingLeft=10;" vertex="1" parent="1">
          <mxGeometry x="1520" y="1040" width="280" height="40" as="geometry" />
        </mxCell>
        <mxCell id="eDnsMtsgoqtX_uenyCYl-40" value="0/272" style="rounded=0;whiteSpace=wrap;html=1;fontSize=25;align=left;spacingLeft=10;" vertex="1" parent="1">
          <mxGeometry x="1520" y="200" width="320" height="40" as="geometry" />
        </mxCell>
        <mxCell id="eDnsMtsgoqtX_uenyCYl-41" value="&lt;span style=&quot;font-size: 40px;&quot;&gt;Partition 16&lt;br&gt;&lt;/span&gt;" style="rounded=0;whiteSpace=wrap;html=1;" vertex="1" parent="1">
          <mxGeometry x="1520" y="80" width="320" height="120" as="geometry" />
        </mxCell>
        <mxCell id="eDnsMtsgoqtX_uenyCYl-43" value="0/272" style="rounded=0;whiteSpace=wrap;html=1;fontSize=25;align=left;spacingLeft=10;" vertex="1" parent="1">
          <mxGeometry x="1520" y="480" width="320" height="40" as="geometry" />
        </mxCell>
        <mxCell id="eDnsMtsgoqtX_uenyCYl-44" value="&lt;span style=&quot;font-size: 40px;&quot;&gt;Partition 16&lt;br&gt;&lt;/span&gt;" style="rounded=0;whiteSpace=wrap;html=1;" vertex="1" parent="1">
          <mxGeometry x="1520" y="360" width="320" height="120" as="geometry" />
        </mxCell>
        <mxCell id="eDnsMtsgoqtX_uenyCYl-45" value="0/272" style="rounded=0;whiteSpace=wrap;html=1;fontSize=25;align=left;spacingLeft=10;" vertex="1" parent="1">
          <mxGeometry x="1520" y="760" width="320" height="40" as="geometry" />
        </mxCell>
        <mxCell id="eDnsMtsgoqtX_uenyCYl-46" value="&lt;span style=&quot;font-size: 40px;&quot;&gt;Partition 16&lt;br&gt;&lt;/span&gt;" style="rounded=0;whiteSpace=wrap;html=1;" vertex="1" parent="1">
          <mxGeometry x="1520" y="640" width="320" height="120" as="geometry" />
        </mxCell>
      </root>
    </mxGraphModel>
  </diagram>
</mxfile>
